<svg width="60" height="61" viewBox="0 0 60 61" fill="none" xmlns="http://www.w3.org/2000/svg">
<path fill-rule="evenodd" clip-rule="evenodd" d="M48.75 10.0415H11.25C10.5596 10.0415 10 10.6012 10 11.2915V48.7915C10 49.4819 10.5596 50.0415 11.25 50.0415H48.75C49.4404 50.0415 50 49.4819 50 48.7915V11.2915C50 10.6012 49.4404 10.0415 48.75 10.0415ZM11.25 7.5415C9.17894 7.5415 7.5 9.22044 7.5 11.2915V48.7915C7.5 50.8626 9.17894 52.5415 11.25 52.5415H48.75C50.8211 52.5415 52.5 50.8626 52.5 48.7915V11.2915C52.5 9.22044 50.8211 7.5415 48.75 7.5415H11.25Z" fill="#B3261E"/>
<path fill-rule="evenodd" clip-rule="evenodd" d="M25.611 20.4539C23.5574 20.8086 22.0608 22.5489 21.8169 24.6186L20 40.0415H40L38.1806 24.5977C37.938 22.5382 36.4555 20.801 34.4127 20.4437C31.3496 19.9082 28.7976 19.9032 25.611 20.4539ZM27.1627 25.8512C27.2484 25.1662 26.7624 24.5415 26.0774 24.4559C25.3924 24.3702 24.7676 24.8561 24.682 25.5412L23.5511 34.5889C23.4654 35.2739 23.9514 35.8986 24.6364 35.9842C25.3214 36.0699 25.9461 35.584 26.0317 34.8989L27.1627 25.8512Z" fill="#B3261E"/>
<path fill-rule="evenodd" clip-rule="evenodd" d="M28.093 22.6375C29.1815 23.4114 29.8206 24.7432 29.6434 26.1614L28.5125 35.209C28.3954 36.146 27.942 36.9587 27.2886 37.5415H37.1883L35.6979 24.8902C35.5699 23.8039 34.8179 23.0525 33.9823 22.9064C31.8934 22.5412 30.095 22.4472 28.093 22.6375ZM38.1806 24.5977C37.938 22.5382 36.4555 20.801 34.4127 20.4437C31.3496 19.9082 28.7976 19.9032 25.611 20.4539C23.5574 20.8086 22.0608 22.5489 21.8169 24.6186L20 40.0415H40L38.1806 24.5977ZM27.1627 25.8512L26.0317 34.8989C25.9461 35.584 25.3214 36.0699 24.6364 35.9842C23.9514 35.8986 23.4654 35.2739 23.5511 34.5889L24.682 25.5412C24.7676 24.8561 25.3924 24.3702 26.0774 24.4559C26.7624 24.5415 27.2484 25.1662 27.1627 25.8512Z" fill="#B3261E"/>
<path fill-rule="evenodd" clip-rule="evenodd" d="M41.25 45.0415H18.75V42.5415H41.25V45.0415Z" fill="#B3261E"/>
<path d="M16.25 30.0415C16.25 30.4629 16.269 30.8798 16.306 31.2915H12.5V28.7915H16.306C16.269 29.2033 16.25 29.6201 16.25 30.0415Z" fill="#B3261E"/>
<path d="M18.7657 22.1119C18.2859 22.7904 17.8661 23.5142 17.5139 24.2759L14.2197 22.374L15.4697 20.209L18.7657 22.1119Z" fill="#B3261E"/>
<path d="M24.2344 17.5552C23.4727 17.9075 22.7489 18.3274 22.0704 18.8071L20.1675 15.5112L22.3325 14.2612L24.2344 17.5552Z" fill="#B3261E"/>
<path d="M30 16.2915C29.5786 16.2915 29.1618 16.3105 28.75 16.3475V12.5415H31.25V16.3475C30.8382 16.3105 30.4214 16.2915 30 16.2915Z" fill="#B3261E"/>
<path d="M37.9296 18.8071C37.2511 18.3274 36.5273 17.9075 35.7656 17.5552L37.6675 14.2612L39.8325 15.5112L37.9296 18.8071Z" fill="#B3261E"/>
<path d="M42.4863 24.2759C42.134 23.5142 41.7142 22.7904 41.2344 22.1119L44.5304 20.209L45.7804 22.374L42.4863 24.2759Z" fill="#B3261E"/>
<path d="M43.7498 30.0415C43.7498 29.6201 43.7308 29.2033 43.6938 28.7915H47.4998V31.2915H43.6938C43.7308 30.8798 43.7498 30.4629 43.7498 30.0415Z" fill="#B3261E"/>
</svg>
