<svg width="60" height="61" viewBox="0 0 60 61" fill="none" xmlns="http://www.w3.org/2000/svg">
<path fill-rule="evenodd" clip-rule="evenodd" d="M16.2741 15.5102C16.346 14.6235 16.577 13.781 16.939 13.0103H7.5V16.1122L12.5 19.9006V53.0487H47.5V19.9446L53.125 16.1562V13.0103H30.561C30.923 13.781 31.154 14.6235 31.2259 15.5102H49.6087L45 18.6142V50.5487H15V18.6584L10.8452 15.5102H16.2741Z" fill="#151A7B"/>
<path fill-rule="evenodd" clip-rule="evenodd" d="M25 33.0293H20V38.0293H25V33.0293ZM17.5 30.5293V40.5293H27.5V30.5293H17.5Z" fill="#151A7B"/>
<path fill-rule="evenodd" clip-rule="evenodd" d="M40 33.0293H32.5V50.5293H40V33.0293ZM30 30.5293V53.0293H42.5V30.5293H30Z" fill="#151A7B"/>
<path d="M7.5 51.7793C7.5 52.4697 8.05965 53.0293 8.75 53.0293H51.25C51.9404 53.0293 52.5 52.4697 52.5 51.7793C52.5 51.0889 51.9404 50.5293 51.25 50.5293H8.75C8.05965 50.5293 7.5 51.0889 7.5 51.7793Z" fill="#151A7B"/>
<path fill-rule="evenodd" clip-rule="evenodd" d="M18.75 20.5293H12.5V18.0293H18.75V20.5293Z" fill="#151A7B"/>
<path fill-rule="evenodd" clip-rule="evenodd" d="M46.875 20.5293H28.75V18.0293H46.875V20.5293Z" fill="#151A7B"/>
<path fill-rule="evenodd" clip-rule="evenodd" d="M31.25 15.5293C31.25 19.6714 27.8921 23.0293 23.75 23.0293C19.6079 23.0293 16.25 19.6714 16.25 15.5293C16.25 11.3872 19.6079 8.0293 23.75 8.0293C27.8921 8.0293 31.25 11.3872 31.25 15.5293ZM25 11.7793V14.2793H27.5V16.7793H25V19.2793H22.5V16.7793H20V14.2793H22.5V11.7793H25Z" fill="#151A7B"/>
</svg>
