<svg width="60" height="61" viewBox="0 0 60 61" fill="none" xmlns="http://www.w3.org/2000/svg">
<path fill-rule="evenodd" clip-rule="evenodd" d="M42.5 20.5293C42.5 27.4328 36.9035 33.0293 30 33.0293C23.0965 33.0293 17.5 27.4328 17.5 20.5293C17.5 13.6258 23.0965 8.0293 30 8.0293C36.9035 8.0293 42.5 13.6258 42.5 20.5293ZM40 20.5293C40 26.0522 35.5229 30.5293 30 30.5293C24.4771 30.5293 20 26.0522 20 20.5293C20 15.0064 24.4771 10.5293 30 10.5293C35.5229 10.5293 40 15.0064 40 20.5293Z" fill="#E79A2C"/>
<path fill-rule="evenodd" clip-rule="evenodd" d="M22.3926 36.5982C22.3973 36.6074 22.4019 36.6165 22.4065 36.6257C22.4384 36.6894 22.4695 36.751 22.5 36.8089H27.5799C28.7135 36.8087 29.2794 36.8088 29.8461 36.8089H29.8771C30.4319 36.809 30.9975 36.8092 32.1064 36.8089H37.1866C37.4719 36.267 38.1215 35.4019 38.75 35.545C40.162 35.8667 41.5845 36.3149 42.9514 36.866L42.993 36.8453L43.0066 36.8728L43.0159 36.8922C48.1601 38.9812 52.5 42.5245 52.5 46.2417V53.0293H7.5V46.2417C7.5 41.5225 14.4948 37.0835 21.25 35.545C21.8016 35.4194 22.1281 36.0707 22.3926 36.5982ZM40.8804 38.7575C40.3436 38.5699 39.7998 38.3999 39.2536 38.2493L38.6958 39.3089H32.1064C30.9731 39.3092 30.4141 39.309 29.862 39.3089C29.2969 39.3088 28.739 39.3087 27.5805 39.3089H20.9909L20.4735 38.3262C20.323 38.3695 20.1727 38.4144 20.0227 38.4605C20.0145 38.5429 20.008 38.6359 20.0041 38.7402C19.9879 39.1714 20.0201 39.6828 20.0911 40.2042C20.162 40.7239 20.2674 41.2225 20.3846 41.6245C20.4032 41.6884 20.4219 41.7485 20.4401 41.8048C22.3039 42.0228 23.75 43.6072 23.75 45.5293C23.75 47.6004 22.0711 49.2793 20 49.2793C17.9289 49.2793 16.25 47.6004 16.25 45.5293C16.25 44.1957 16.9462 43.0245 17.995 42.3598L17.9846 42.3245C17.8285 41.7892 17.6995 41.1679 17.6141 40.5419C17.5623 40.162 17.525 39.7688 17.5089 39.3817C15.9631 40.0415 14.5231 40.839 13.3154 41.7202C10.9121 43.4735 10 45.1129 10 46.2417V50.5293H50V46.2417C50 45.1129 49.0879 43.4735 46.6846 41.7202C45.7042 41.0049 44.5709 40.3448 43.3522 39.7687C43.3325 40.0285 43.3044 40.2882 43.2697 40.5419C43.2121 40.9649 43.1345 41.3857 43.042 41.7793H43.75C44.2235 41.7793 44.6563 42.0468 44.868 42.4703L46.118 44.9703C46.2049 45.1438 46.25 45.3353 46.25 45.5293V48.0293C46.25 48.7197 45.6904 49.2793 45 49.2793H42.5V46.7793H43.75V45.8244L42.9775 44.2793H39.5225L38.75 45.8244V46.7793H40V49.2793H37.5C36.8096 49.2793 36.25 48.7197 36.25 48.0293V45.5293C36.25 45.3353 36.2951 45.1438 36.382 44.9703L37.632 42.4703C37.8438 42.0468 38.2765 41.7793 38.75 41.7793H40.452C40.4676 41.7304 40.4834 41.6789 40.4992 41.6245C40.6165 41.2225 40.7219 40.7239 40.7928 40.2042C40.8629 39.6898 40.8951 39.185 40.8804 38.7575ZM21.25 45.5293C21.25 46.247 20.673 46.7977 20 46.7977C19.327 46.7977 18.75 46.247 18.75 45.5293C18.75 44.8115 19.327 44.2609 20 44.2609C20.673 44.2609 21.25 44.8115 21.25 45.5293Z" fill="#E79A2C"/>
</svg>
