<svg width="60" height="61" viewBox="0 0 60 61" fill="none" xmlns="http://www.w3.org/2000/svg">
<path fill-rule="evenodd" clip-rule="evenodd" d="M33.6962 49.5026C32.2979 48.887 30.6268 48.5293 28.832 48.5293C23.9136 48.5293 19.9268 51.2156 19.9268 54.5293C19.9268 57.8429 23.9136 60.5293 28.832 60.5293C33.7276 60.5293 37.7006 57.8674 37.7367 54.5746L38.2345 48.5476H41.6922L42.19 54.5746C42.226 57.8674 46.1991 60.5293 51.0949 60.5293C56.0131 60.5293 60.0001 57.8429 60.0001 54.5293C60.0001 51.2156 56.0131 48.5293 51.0949 48.5293C49.2999 48.5293 47.6288 48.887 46.2305 49.5026L42.1862 0.529297L39.9634 0.612622L37.7405 0.529297L33.6962 49.5026ZM41.4444 45.5476L39.9634 27.613L38.4823 45.5476H41.4444ZM42.1895 21.5836C42.1895 22.4108 41.1928 23.0815 39.9632 23.0815C38.7339 23.0815 37.7369 22.4108 37.7369 21.5836C37.7369 20.7563 38.7339 20.0857 39.9632 20.0857C41.1928 20.0857 42.1895 20.7563 42.1895 21.5836ZM24.3794 54.5293C24.3794 52.8724 26.3728 51.5293 28.832 51.5293C31.2909 51.5293 33.2845 52.8724 33.2845 54.5293C33.2845 56.1862 31.2909 57.5293 28.832 57.5293C26.3728 57.5293 24.3794 56.1862 24.3794 54.5293ZM51.0949 51.5293C48.6358 51.5293 46.6423 52.8724 46.6423 54.5293C46.6423 56.1862 48.6358 57.5293 51.0949 57.5293C53.5539 57.5293 55.5475 56.1862 55.5475 54.5293C55.5475 52.8724 53.5539 51.5293 51.0949 51.5293Z" fill="#00A86B"/>
<path d="M8.79514 17.0293V0.529297C8.79514 0.529297 1.05207 3.9203 0.00615525 17.0263C-0.125864 18.6808 1.88337 20.0293 4.34254 20.0293C6.80149 20.0293 8.79514 18.6862 8.79514 17.0293Z" fill="#00A86B"/>
<path d="M2.11621 25.2793C2.11621 24.0367 3.61117 23.0293 5.45566 23.0293C7.29992 23.0293 8.79511 24.0367 8.79511 25.2793V25.408L2.11621 29.908V25.2793Z" fill="#00A86B"/>
<path d="M2.11621 34.1504V36.6578L8.79511 32.1578V29.6504L2.11621 34.1504Z" fill="#00A86B"/>
<path d="M2.11621 43.4083V40.9009L8.79511 36.4009V38.9083L2.11621 43.4083Z" fill="#00A86B"/>
<path d="M2.11621 47.6504V58.2791C2.11621 59.5217 3.61117 60.5291 5.45566 60.5291C7.29992 60.5291 8.79511 59.5217 8.79511 58.2791V43.1504L2.11621 47.6504Z" fill="#00A86B"/>
</svg>
