<svg width="60" height="61" viewBox="0 0 60 61" fill="none" xmlns="http://www.w3.org/2000/svg">
<path fill-rule="evenodd" clip-rule="evenodd" d="M29.8606 12.4045C29.2923 9.8994 27.052 8.0293 24.375 8.0293C21.2684 8.0293 18.75 10.5477 18.75 13.6543C18.75 16.7609 21.2684 19.2793 24.375 19.2793C27.0519 19.2793 29.292 17.4094 29.8605 14.9045L30 14.9043C30.052 14.9043 30.1032 14.9012 30.1536 14.8949C30.4416 16.0037 31.104 16.7793 31.875 16.7793C32.9105 16.7793 33.75 15.3802 33.75 13.6543C33.75 11.9284 32.9105 10.5293 31.875 10.5293C31.104 10.5293 30.4416 11.305 30.1536 12.4136C30.1032 12.4075 30.052 12.4043 30 12.4043L29.8606 12.4045ZM27.2069 14.9774C26.7087 16.0419 25.628 16.7793 24.375 16.7793C22.821 16.7793 21.532 15.645 21.2906 14.1593C23.3266 15.0585 25.0771 15.0539 27.2069 14.9774ZM21.9341 11.7027C22.5069 10.9874 23.3874 10.5293 24.375 10.5293C25.6781 10.5293 26.795 11.327 27.264 12.4607L27.2316 12.4618C24.9287 12.5403 23.666 12.5834 21.9341 11.7027Z" fill="#5F319C"/>
<path fill-rule="evenodd" clip-rule="evenodd" d="M10.7843 24.903C12.8494 22.4265 15.9504 20.5293 19.7 20.5293C21.3411 20.5293 22.7917 21.5965 23.2801 23.1633L24.8734 28.2744H26.25C28.3211 28.2744 30 29.9534 30 32.0244C30 34.0955 28.3211 35.7744 26.25 35.7744H22.1143C20.4931 35.7744 19.058 34.733 18.5525 33.1974C18.0515 34.5403 17.6691 36.0087 17.5 37.552V49.2793C17.5 51.3504 15.8211 53.0293 13.75 53.0293C11.6789 53.0293 10 51.3504 10 49.2793V40.5448C9.75884 40.1614 9.46139 39.668 9.16025 39.1159C8.81182 38.4773 8.42535 37.6999 8.11755 36.8849C7.83191 36.1285 7.5 35.0495 7.5 33.8917C7.5 30.6068 8.73454 27.361 10.7843 24.903ZM19.7 23.0293C16.8422 23.0293 14.3999 24.4708 12.7042 26.504C11.015 28.5298 10 31.2139 10 33.8917C10 34.6048 10.2113 35.3527 10.4563 36.0017C10.7092 36.6713 11.0385 37.3385 11.3549 37.9188C11.6732 38.5023 11.9898 39.0179 12.2262 39.387C12.2513 39.4263 12.2756 39.464 12.299 39.5C12.4302 39.7025 12.5 39.9387 12.5 40.1799V49.2793C12.5 49.9697 13.0596 50.5293 13.75 50.5293C14.4404 50.5293 15 49.9697 15 49.2793V37.485C15 37.4412 15.0022 37.3973 15.0069 37.3538C15.3407 34.1919 16.448 31.349 17.6924 29.1274C17.9365 28.6917 18.4164 28.443 18.913 28.495C19.4096 28.5469 19.8278 28.8895 19.9764 29.3663L20.9209 32.3964C21.0837 32.9187 21.5673 33.2744 22.1143 33.2744H26.25C26.9404 33.2744 27.5 32.7148 27.5 32.0244C27.5 31.334 26.9404 30.7744 26.25 30.7744H23.9536C23.4066 30.7744 22.9231 30.4187 22.7603 29.8964L20.8934 23.9073C20.7306 23.385 20.247 23.0293 19.7 23.0293Z" fill="#5F319C"/>
<path fill-rule="evenodd" clip-rule="evenodd" d="M46.875 23.0293C49.9816 23.0293 52.5 20.5109 52.5 17.4043C52.5 14.2977 49.9816 11.7793 46.875 11.7793C43.7684 11.7793 41.25 14.2977 41.25 17.4043C41.25 20.5109 43.7684 23.0293 46.875 23.0293ZM46.875 20.5293C48.6009 20.5293 50 19.1302 50 17.4043C50 15.6784 48.6009 14.2793 46.875 14.2793C45.1491 14.2793 43.75 15.6784 43.75 17.4043C43.75 19.1302 45.1491 20.5293 46.875 20.5293Z" fill="#5F319C"/>
<path fill-rule="evenodd" clip-rule="evenodd" d="M42.9735 22.7414C42.2536 21.1409 40.5213 20.2554 38.8053 20.6051C38.7833 20.6091 38.7682 20.6127 38.7614 20.6143L38.758 20.6151L38.7394 20.6192L38.7124 20.6252L38.7081 20.6262C38.6879 20.6308 38.6661 20.6361 38.6429 20.6417C38.5963 20.6532 38.5436 20.6668 38.4853 20.6831C38.3686 20.7154 38.2289 20.7581 38.0694 20.8137C37.7507 20.9248 37.3513 21.0884 36.8998 21.3261C35.9916 21.8042 34.8859 22.5762 33.8234 23.7966C31.6518 26.2912 30 30.2544 30 36.3631C30 37.0017 30.1233 39.2048 32.3169 40.2851C32.529 40.3896 32.7367 40.4689 32.933 40.5294H20V53.0294H22.5V44.2794H36.25V53.0294H38.75V42.4539C39.1217 42.7104 39.497 42.9799 39.8651 43.2533C40.531 43.7478 41.1219 44.2158 41.553 44.5701C41.7046 44.6947 41.832 44.8016 41.9324 44.8872C42.0301 45.0431 42.1565 45.2507 42.3091 45.5062C42.6536 46.0833 43.0849 46.8262 43.5298 47.5986C43.7376 47.9593 43.9518 48.3323 44.1615 48.6978L44.1651 48.7042L44.1986 48.7624L44.1994 48.7638L44.2001 48.7652C44.825 49.8538 45.43 50.9079 45.6773 51.2957C46.7908 53.0421 49.109 53.5551 50.8553 52.4417C52.6016 51.3283 53.1148 49.0101 52.0013 47.2637C51.858 47.0389 51.3911 46.2266 50.7683 45.1416L50.7666 45.1387C50.5346 44.7347 50.2846 44.2993 50.0284 43.8544C49.5813 43.0784 49.1253 42.2923 48.7486 41.6616C48.5614 41.3478 48.3819 41.0527 48.2266 40.8079L48.22 40.7974C48.1149 40.6319 47.8773 40.2572 47.6141 39.9528C47.3911 39.6947 47.1019 39.4428 46.9985 39.3528L46.9763 39.3334C46.798 39.1779 46.5729 38.9878 46.3148 38.7757C45.7974 38.3504 45.1098 37.8062 44.3366 37.2321C44.1756 37.1126 44.0075 36.9891 43.8334 36.8631H48.75C50.8211 36.8631 52.5 35.1841 52.5 33.1131C52.5 31.0419 50.8211 29.3631 48.75 29.3631H45.9519L42.9735 22.7414ZM39.4102 39.8871C39.3616 39.8554 39.3114 39.8276 39.2598 39.8034C39.216 39.7663 39.1696 39.7323 39.121 39.7016C38.3923 39.2407 37.6609 38.8277 37.0165 38.5574C36.0145 38.1371 35.3182 38.1776 34.7587 38.2112L34.7099 38.2141C34.5749 38.2223 34.3865 38.2329 34.2129 38.2268C34.0359 38.2204 33.7323 38.1954 33.4214 38.0423C32.6068 37.6411 32.5 36.8247 32.5 36.3631C32.5 30.7151 34.0183 27.3803 35.709 25.4381C36.5468 24.4758 37.399 23.8886 38.0644 23.5382C38.3962 23.3634 38.6806 23.2482 38.8926 23.1743C38.9527 23.1533 39.0073 23.1356 39.0554 23.1208C39.2061 23.1179 39.3564 23.0878 39.4983 23.0308C40.0026 23.0082 40.4807 23.2938 40.6935 23.7669L44.0035 31.1258C44.2054 31.5744 44.6516 31.8631 45.1435 31.8631H48.75C49.4404 31.8631 50 32.4227 50 33.1131C50 33.8034 49.4404 34.3631 48.75 34.3631H43.5268C43.0349 34.3631 42.5886 34.0744 42.3868 33.6258L41.1076 30.7821C40.9028 30.3263 40.446 30.0364 39.9464 30.0449C39.4466 30.0536 39.0001 30.3588 38.8109 30.8213C38.2554 32.1786 37.857 33.5817 37.6201 35.0746C37.5325 35.6269 37.8225 36.1703 38.3301 36.4051C39.8154 37.0917 41.5141 38.2501 42.8461 39.2392C43.5835 39.7867 44.2389 40.3056 44.7275 40.7072C44.9716 40.9078 45.1775 41.0818 45.333 41.2174L45.3449 41.2279C45.3965 41.2729 45.4666 41.3341 45.5411 41.4038C45.619 41.4766 45.6822 41.5407 45.7226 41.5874C45.7799 41.6537 45.8493 41.7463 45.924 41.8548C45.9969 41.9607 46.062 42.0627 46.1158 42.1474C46.2534 42.3643 46.4195 42.6372 46.6021 42.9431C46.9681 43.5559 47.4159 44.3277 47.8622 45.1024C48.118 45.5464 48.3678 45.9816 48.6004 46.3867L48.6026 46.3906L48.6454 46.4651C49.2231 47.4716 49.7136 48.3259 49.8933 48.6077C50.2644 49.1898 50.0934 49.9626 49.5113 50.3337C48.9291 50.7048 48.1564 50.5338 47.7852 49.9517C47.574 49.6202 46.9925 48.6081 46.3314 47.4561L46.3303 47.4542C46.1205 47.0887 45.9053 46.7137 45.696 46.3506C45.2504 45.5769 44.8109 44.8197 44.4556 44.2247C44.2776 43.9266 44.1248 43.6758 44.0049 43.4871C43.9777 43.4442 43.9544 43.4081 43.9348 43.3779C43.8723 43.2822 43.797 43.1954 43.711 43.1202L43.6905 43.1022L43.6891 43.1011C43.5565 42.9854 43.3704 42.8277 43.1402 42.6386C42.6804 42.2607 42.0572 41.7673 41.3556 41.2463C40.7207 40.7748 40.0561 40.3068 39.4102 39.8871Z" fill="#5F319C"/>
</svg>
