<svg width="60" height="61" viewBox="0 0 60 61" fill="none" xmlns="http://www.w3.org/2000/svg">
<path fill-rule="evenodd" clip-rule="evenodd" d="M30 3.5293C15.0884 3.5293 3 15.6176 3 30.5293C3 45.4409 15.0884 57.5293 30 57.5293C44.9117 57.5293 57 45.4409 57 30.5293C57 15.6176 44.9117 3.5293 30 3.5293ZM0 30.5293C0 13.9607 13.4314 0.529297 30 0.529297C46.5686 0.529297 60 13.9607 60 30.5293C60 47.0978 46.5686 60.5293 30 60.5293C13.4314 60.5293 0 47.0978 0 30.5293ZM18 39.5293V15.5293C18 14.7008 18.6716 14.0293 19.5 14.0293H28.5C32.6421 14.0293 36 17.3872 36 21.5293C36 25.4702 32.9604 28.7012 29.0976 29.0059L36 35.9081L42.4394 29.4688L44.5608 31.5901L38.1213 38.0294L44.5606 44.4688L42.4392 46.5901L36 40.1507L29.5608 46.5901L27.4394 44.4688L33.8787 38.0294L24.8785 29.0293H21V39.5293H18ZM21 26.0293H28.5C30.9853 26.0293 33 24.0146 33 21.5293C33 19.0439 30.9853 17.0293 28.5 17.0293H21V26.0293Z" fill="#009900"/>
</svg>
